<mxfile host="app.diagrams.net" modified="2023-08-15T09:37:36.575Z" agent="Mozilla/5.0 (X11; Linux x86_64; rv:109.0) Gecko/20100101 Firefox/116.0" version="21.3.8" etag="cH_UHAwY8Uh3YhpxBPY_" type="github">
  <diagram name="Page-1" id="WsIweVZdntcUjOoOMrj2">
    <mxGraphModel>
      <root>
        <mxCell id="0" />
        <mxCell id="1" parent="0" />
      </root>
    </mxGraphModel>
  </diagram>
</mxfile>
